<svg width="100" height="100" viewBox="0 0 100 100" fill="none" xmlns="http://www.w3.org/2000/svg">
<rect width="100" height="100" fill="#1A2048"/>
<path fill-rule="evenodd" clip-rule="evenodd" d="M84 43.841V16.8954C83.9907 16.6299 83.9276 16.3691 83.8147 16.1287C83.7017 15.8883 83.5411 15.6733 83.3427 15.4968C83.1442 15.3202 82.912 15.1857 82.6601 15.1014C82.4082 15.0172 82.1418 14.9849 81.8771 15.0065H16.9108C16.6454 15.0137 16.3842 15.0747 16.143 15.1856C15.9019 15.2966 15.6857 15.4553 15.5076 15.6522C15.3295 15.849 15.1931 16.08 15.1068 16.331C15.0204 16.582 14.9859 16.8479 15.0052 17.1127V81.8357C14.9882 82.1065 15.0258 82.378 15.1155 82.6341C15.2053 82.8902 15.3455 83.1257 15.5278 83.3267C15.7101 83.5277 15.9309 83.6901 16.177 83.8044C16.4231 83.9187 16.6897 83.9825 16.9609 83.992H81.852C82.1171 84.016 82.3844 83.986 82.6377 83.904C82.8909 83.8219 83.125 83.6894 83.3257 83.5145C83.5264 83.3396 83.6896 83.1258 83.8055 82.8861C83.9214 82.6464 83.9875 82.3858 84 82.1198V43.841ZM57.8647 21.8432C58.0217 21.3945 58.3077 21.002 58.6869 20.715C59.066 20.4281 59.5214 20.2594 59.9959 20.2302H76.7118C76.9862 20.2088 77.2619 20.2471 77.52 20.3425C77.7781 20.4379 78.0126 20.588 78.2071 20.7826C78.4017 20.9772 78.5518 21.2115 78.6472 21.4697C78.7426 21.7278 78.7809 22.0035 78.7595 22.2778V39.286C78.7169 39.7464 78.543 40.1848 78.2585 40.5492C77.9741 40.9137 77.591 41.1888 77.1548 41.342L46.3725 54.4387C46.2008 54.5058 46.0249 54.5616 45.846 54.6059C45.5306 54.7064 45.1918 54.7064 44.8764 54.6059C44.1159 54.2716 44.5421 53.1015 44.7845 52.5499L45.077 51.8645L57.8647 21.8432ZM20.2372 26.7911V22.3032C20.2372 22.007 20.228 21.8003 20.3019 21.5513C20.3758 21.3023 20.5 21.0711 20.6669 20.8721C20.8338 20.6731 21.0398 20.5104 21.2721 20.3943C21.5044 20.2781 21.7581 20.2109 22.0175 20.1968H50.7019C52.7413 20.1968 52.3067 21.6761 52.1479 22.0773L49.6405 27.9695C49.3963 28.5406 48.9896 29.0273 48.4709 29.3691C47.9523 29.7109 47.3447 29.8927 46.7236 29.8918H22.6443C22.6443 29.8918 20.3041 29.7664 20.2372 26.7911ZM41.8091 35.1489C42.3316 35.1501 42.8458 35.2806 43.3056 35.5288C43.7655 35.7769 44.1569 36.1349 44.4448 36.571C44.7328 37.007 44.9084 37.5076 44.956 38.028C45.0036 38.5483 44.9217 39.0724 44.7176 39.5534L42.6532 44.0332C42.4067 44.613 41.9925 45.1057 41.4638 45.4483C40.935 45.7908 40.316 45.9674 39.6862 45.9555H22.661C22.661 45.9555 20.2623 45.872 20.2456 42.7796V37.23C20.2456 36.8965 20.2395 36.6088 20.3473 36.3174C20.4551 36.0261 20.6325 35.7655 20.8641 35.5584C21.5107 35.1359 22.1043 35.0588 23.0539 35.082L41.8091 35.1489ZM20.2539 63.8747V53.277C20.2539 53.0281 20.2621 52.7626 20.3416 52.5179C20.4211 52.2733 20.5487 52.047 20.7169 51.8523C20.885 51.6577 21.0904 51.4986 21.321 51.3844C21.5515 51.2703 21.8025 51.2033 22.0593 51.1875H37.2707C37.5289 51.1935 37.7818 51.2624 38.0074 51.3882C38.233 51.514 38.4245 51.6929 38.5653 51.9095C38.7061 52.126 38.792 52.3737 38.8154 52.6309C38.8389 52.8881 38.7992 53.1472 38.6999 53.3856L37.1621 57.3055C36.7055 58.1872 35.95 58.8775 35.0308 59.2528L21.4575 65.0281C21.4575 65.0281 20.2539 65.4125 20.2539 63.8747ZM32.1222 66.0728C32.2635 65.9967 32.4883 65.9569 32.6488 65.9569C32.8092 65.9569 32.9672 65.9967 33.1085 66.0728C33.3926 66.3068 33.2255 66.7247 33.1085 67.0005L28.754 77.3392C28.5327 77.7878 28.1877 78.1639 27.7597 78.423C27.3318 78.6821 26.8387 78.8136 26.3385 78.8018H22.1596C21.894 78.8116 21.6294 78.7643 21.3837 78.6629C21.138 78.5616 20.9169 78.4087 20.7354 78.2146C20.5539 78.0204 20.4163 77.7895 20.3318 77.5376C20.2473 77.2856 20.2456 77.0245 20.2456 76.7541V72.8928C20.2361 72.4226 20.3548 71.9588 20.5889 71.5509C20.8231 71.1431 21.1637 70.8067 21.5745 70.5777L32.1222 66.0728ZM35.3985 78.7433C33.8523 78.7433 34.078 77.7738 34.1532 77.5397L39.87 64.1004C40.2491 63.2207 40.903 62.4876 41.7339 62.0109L45.729 60.4396C45.9675 60.3424 46.226 60.3044 46.4825 60.3287C46.7389 60.3531 46.9857 60.4392 47.2016 60.5796C47.4176 60.72 47.5964 60.9106 47.7227 61.1351C47.849 61.3596 47.9192 61.6113 47.9271 61.8688V76.9129C47.8993 77.2695 47.7783 77.6125 47.5761 77.9075C47.3791 78.1891 47.112 78.4143 46.8012 78.5609C46.4904 78.7075 46.1467 78.7704 45.8042 78.7433H35.3985ZM64.0078 76.8042C64.0066 77.074 63.9493 77.3406 63.8396 77.5871C63.7299 77.8336 63.5702 78.0546 63.3706 78.2362C63.171 78.4177 62.9359 78.5557 62.6801 78.6416C62.4244 78.7275 62.1535 78.7592 61.8848 78.7349H56.3268C54.7806 78.7349 53.1926 77.8991 53.1424 76.2276C53.1424 76.2276 53.0087 65.1535 53.0338 59.4701C53.0285 58.8417 53.2079 58.2255 53.5496 57.6981C53.8913 57.1706 54.3804 56.7551 54.9561 56.5031L59.5613 54.4387C60.0424 54.2347 60.5665 54.1528 61.0869 54.2004C61.6072 54.248 62.1078 54.4236 62.5438 54.7115C62.9799 54.9995 63.3379 55.3908 63.5861 55.8507C63.8342 56.3106 63.9647 56.8247 63.966 57.3472L64.0078 76.8042ZM72.4409 78.7433C69.3401 78.7433 69.2649 76.3279 69.2566 76.3362L69.2148 52.4078C69.2139 51.7867 69.3957 51.179 69.7375 50.6604C70.0793 50.1418 70.566 49.7351 71.1371 49.4909L76.8957 47.0337C77.2885 46.8833 78.7763 46.457 78.7679 48.4462C78.7679 57.7456 78.7679 67.0507 78.7679 76.3613C78.7679 77.7988 78.1578 78.7015 76.6533 78.7516" fill="#FFF500"/>
</svg>
