<svg viewBox="0 0 102 26" fill="none" xmlns="http://www.w3.org/2000/svg"><title>Bravery</title><path fill-rule="evenodd" clip-rule="evenodd" d="M25.521 11.02V1.192a.722.722 0 0 0-.486-.654.709.709 0 0 0-.284-.035H1.193a.709.709 0 0 0-.654.484.72.72 0 0 0-.037.285v23.61a.745.745 0 0 0 .425.718c.09.041.186.064.284.068h23.531a.711.711 0 0 0 .709-.403.723.723 0 0 0 .07-.28V11.021Zm-9.477-8.024a.881.881 0 0 1 .773-.588h6.061a.687.687 0 0 1 .702.452.7.7 0 0 1 .04.295v6.204a.885.885 0 0 1-.581.75l-11.163 4.777a1.526 1.526 0 0 1-.19.062.575.575 0 0 1-.352 0c-.276-.122-.121-.55-.033-.75l.106-.25 4.637-10.952ZM2.399 4.801V3.164c0-.108-.003-.183.024-.274a.694.694 0 0 1 .622-.494h10.401c.74 0 .582.54.525.686l-.91 2.149a1.153 1.153 0 0 1-1.057.701H3.272s-.849-.045-.873-1.13Zm7.823 3.049a1.143 1.143 0 0 1 .956.519 1.16 1.16 0 0 1 .098 1.088l-.748 1.634a1.15 1.15 0 0 1-1.076.701H3.278s-.87-.03-.876-1.159V8.61c0-.122-.002-.227.037-.333A.695.695 0 0 1 2.626 8c.235-.154.45-.182.795-.173l6.8.024ZM2.405 18.329v-3.866c0-.091.003-.188.032-.277a.705.705 0 0 1 .623-.485h5.516a.572.572 0 0 1 .47.263.582.582 0 0 1 .048.538l-.557 1.43c-.166.322-.44.574-.773.71L2.842 18.75s-.437.14-.437-.42Zm4.304.801a.452.452 0 0 1 .19-.042.35.35 0 0 1 .168.042c.103.086.042.238 0 .339l-1.58 3.771a.956.956 0 0 1-.875.534H3.096a.67.67 0 0 1-.663-.461.89.89 0 0 1-.03-.286v-1.409a.95.95 0 0 1 .481-.844L6.71 19.13Zm1.188 4.622c-.56 0-.479-.353-.452-.439l2.074-4.902c.137-.321.374-.588.675-.762l1.45-.573a.575.575 0 0 1 .722.253.586.586 0 0 1 .074.268v5.488a.717.717 0 0 1-.77.668H7.897Zm10.374-.707a.714.714 0 0 1-.481.67.702.702 0 0 1-.288.034h-2.016c-.56 0-1.136-.304-1.155-.914 0 0-.048-4.04-.039-6.113a1.176 1.176 0 0 1 .697-1.082l1.67-.754a1.142 1.142 0 0 1 1.46.516c.09.167.137.355.137.546l.015 7.097Zm3.059.707c-1.125 0-1.152-.88-1.155-.878l-.015-8.728a1.16 1.16 0 0 1 .697-1.064l2.088-.897c.142-.055.682-.21.679.516v10.183c0 .524-.221.853-.767.871" fill="currentColor"/><path d="M38.082 19.515V6.608h4.492c1.08-.07 2.15.23 3.039.852a2.896 2.896 0 0 1 1.059 2.392 2.714 2.714 0 0 1-.79 2.051 3.887 3.887 0 0 1-2.33.921l.169-.183v.278l-.176-.183a4.086 4.086 0 0 1 2.575.966 2.95 2.95 0 0 1 .809 2.209 3.764 3.764 0 0 1-.483 1.95 3.079 3.079 0 0 1-1.397 1.262 5.298 5.298 0 0 1-2.205.417l-4.762-.025Zm4.386-11.891H39.29v4.727h2.914c.864.061 1.726-.16 2.456-.631a2.125 2.125 0 0 0 .802-1.811 2.071 2.071 0 0 0-.746-1.704 3.576 3.576 0 0 0-2.25-.581Zm-.1 5.73H39.29v5.138h3.396c.802.062 1.6-.161 2.256-.631a2.413 2.413 0 0 0 .789-1.963 2.249 2.249 0 0 0-.82-1.893 4.261 4.261 0 0 0-2.544-.65ZM50.763 19.514h-1.146V10.25h.952l.081 2.064c.182-.612.55-1.15 1.053-1.54a3.116 3.116 0 0 1 1.88-.524h.626v1.086h-.664a2.684 2.684 0 0 0-2.08.776 3.394 3.394 0 0 0-.715 2.36l.013 5.043ZM57.053 12.458l-.814-.58a3.84 3.84 0 0 1 1.447-1.364 4.26 4.26 0 0 1 2.036-.466 3.46 3.46 0 0 1 2.688 1.022c.672.81 1.008 1.85.94 2.903v5.542h-.965l-.056-1.793h-.038a3.407 3.407 0 0 1-1.253 1.433 3.962 3.962 0 0 1-2.18.543 3.61 3.61 0 0 1-2.431-.764 2.568 2.568 0 0 1-.89-2.07 2.624 2.624 0 0 1 .921-2.127 3.958 3.958 0 0 1 2.575-.764h3.214v-.177a2.853 2.853 0 0 0-.67-2.02 2.454 2.454 0 0 0-1.88-.731 3.113 3.113 0 0 0-1.503.347c-.472.24-.867.61-1.14 1.066Zm2.03 6.312a3.325 3.325 0 0 0 1.68-.404c.465-.27.842-.672 1.083-1.155a3.95 3.95 0 0 0 .383-1.786v-.537h-3.077a3.01 3.01 0 0 0-1.88.499 1.652 1.652 0 0 0-.626 1.414 1.771 1.771 0 0 0 .627 1.445 2.748 2.748 0 0 0 1.81.524ZM69.472 17.899h-.27.564-.276l3.164-7.63h1.21l-3.941 9.246h-.928l-3.947-9.247h1.253l3.17 7.63ZM76.15 15.236v-.96h7.312l-.257.221a3.6 3.6 0 0 0-.883-2.562 3.13 3.13 0 0 0-2.394-.928 3.477 3.477 0 0 0-1.83.46c-.52.314-.935.778-1.19 1.332a4.598 4.598 0 0 0-.42 2.045v.234a3.873 3.873 0 0 0 .94 2.764 3.368 3.368 0 0 0 2.582.997 3.632 3.632 0 0 0 1.798-.435c.5-.282.909-.703 1.178-1.212l.833.587a3.81 3.81 0 0 1-1.535 1.508 4.667 4.667 0 0 1-2.268.575 4.939 4.939 0 0 1-2.506-.6 4.126 4.126 0 0 1-1.623-1.691c-.399-.8-.597-1.687-.576-2.582a5.594 5.594 0 0 1 .576-2.6c.361-.72.92-1.32 1.61-1.73a4.648 4.648 0 0 1 2.419-.63c.861-.03 1.713.189 2.456.63a3.893 3.893 0 0 1 1.522 1.812c.354.878.495 1.827.414 2.77l-8.158-.005ZM88.092 19.514h-1.147V10.25h.928l.075 2.064A2.98 2.98 0 0 1 89 10.773a3.116 3.116 0 0 1 1.88-.524h.627v1.086h-.665a2.684 2.684 0 0 0-2.08.776 3.393 3.393 0 0 0-.714 2.36l.044 5.043ZM96.688 22.677h-1.153l1.147-2.929a.528.528 0 0 0 0-.499l-3.84-8.98h1.252l3.258 7.889-.163-.108h.276l-.15.108 3.013-7.89h1.172l-4.812 12.409Z" fill="currentColor"/></svg>