<?xml version="1.0" encoding="UTF-8"?>
<svg id="Layer_2" data-name="Layer 2" xmlns="http://www.w3.org/2000/svg" width="96.35" height="87.48" viewBox="0 0 96.35 87.48">
  <g id="Layer_1-2" data-name="Layer 1">
    <g>
      <path d="M67.79,17.17V1.13c-.01-.2-.14-1.12-1.27-1.13H27.86c-.15,0-1.12.1-1.14,1.25,0,0,0,38.52,0,38.52,0,.68.46,1.28,1.17,1.29,0,0,38.62,0,38.62,0,1.11,0,1.26-.88,1.28-1.12M53.49,3.11s9.97,0,9.96,0c0,0,1.23-.08,1.22,1.22v10.12c-.01.18-.12.88-.96,1.22,0,0-18.28,7.78-18.32,7.79-.11.04-.2.08-.32.1-.18.04-.39.07-.57,0-.46-.2-.2-.89-.06-1.22.06-.14.12-.27.17-.41l.28-.66.37-.87.45-1.06.51-1.21.56-1.32.6-1.4c.21-.48.41-.97.62-1.45l.63-1.47c.21-.48.41-.97.62-1.45l.6-1.4.56-1.32.51-1.2.45-1.05.37-.86.27-.65.17-.39s.03-.07.05-.11c.4-.97,1.27-.96,1.27-.96ZM29.84,7.04v-2.66s0,0,0,0c-.08-1.09.9-1.25,1.06-1.26h17.07c1.21-.02.96.88.86,1.12l-1.5,3.51c-.3.69-.98,1.14-1.73,1.14l-14.34-.03h0s-1.38-.06-1.43-1.82ZM29.84,19.04h0s0,.12,0,.12v-.12ZM29.84,16.54s0-3.31,0-3.31c-.03-.37.08-.74.37-.98.38-.32.84-.29,1.31-.28h1.25c.57,0,1.14,0,1.7,0h1.95c.66,0,1.32,0,1.99,0h1.82c.48,0,.96,0,1.44,0h.86c.05,0,.1,0,.15,0,1.35,0,2.26,1.38,1.73,2.62l-1.22,2.87c-.3.71-1,1.16-1.77,1.14l-10.14-.19h0s-1.43-.05-1.44-1.89ZM29.84,29.09v-6.3c-.06-1.09.95-1.23,1.08-1.25l9.05.17c.67.01,1.11.69.85,1.31l-.91,2.17s-.36.8-1.27,1.16h0s-8.08,3.44-8.08,3.44c-.1.03-.73.22-.72-.7ZM33.46,37.95h-2.48c-.26,0-1.15-.12-1.14-1.22v-2.3c-.02-.57.3-1.1.79-1.38.22-.13.48-.21.72-.31.67-.28,1.34-.56,2.01-.85.75-.32,1.5-.63,2.25-.95.43-.18.87-.36,1.3-.55.01,0,.03-.01.04-.02.16-.07.4-.13.54,0,.17.14.07.39,0,.55,0,0-2.59,6.16-2.59,6.16,0,0-.43.92-1.44.87ZM45.07,37.95c-.08,0-.15,0-.23,0-.25,0-.51,0-.76,0h-2.16c-.71,0-1.42,0-2.14,0-.31,0-.62,0-.93,0-.92.02-.78-.57-.74-.71l3.4-8c.36-.85,1.06-1.22,1.11-1.24l2.22-.94c.61-.26,1.29.18,1.31.85l.17,8.97c0,.2-.1.43-.21.6-.23.37-.64.5-1.06.49ZM54.63,37.95s-3.31,0-3.31,0c-.92,0-1.86-.49-1.89-1.51-.02-.75-.03-1.51-.04-2.26l-.06-3.31-.06-3.05c0-.45-.02-.9-.03-1.36-.01-.77.44-1.47,1.14-1.77l2.87-1.22c1.24-.53,2.62.38,2.62,1.73v1.1c0,.88,0,1.77,0,2.65v3.26c0,.97,0,1.95.01,2.92,0,.55.02,1.11,0,1.66-.02.7-.56,1.2-1.26,1.15ZM63.41,37.95c-.17,0-.35,0-.52,0-.49,0-.98,0-1.48,0-.17,0-.34,0-.51,0-1.85,0-1.89-1.44-1.89-1.44l-.03-14.24c0-.76.45-1.44,1.14-1.73l3.43-1.46c.24-.09,1.12-.34,1.12.84v16.53c0,.41,0,.77-.26,1.11-.25.32-.62.39-1,.4Z" fill="#231f20" fill-rule="evenodd" stroke-width="0"/>
      <g>
        <path d="M0,62.02h7.22c4.14,0,6.49,1.91,6.49,5.14,0,2.36-1.27,3.97-3.52,4.6v.08c2.65.62,3.94,2.28,3.94,4.92,0,3.62-2.43,5.71-6.53,5.71H0v-20.46ZM1.93,63.64v7.5h4.66c3.5,0,5.21-1.34,5.21-3.87,0-2.32-1.62-3.63-4.78-3.63H1.93ZM6.84,72.72H1.93v8.13h5.42c3.12,0,4.87-1.48,4.87-4.14s-1.7-4-5.37-4Z" fill="#231f20" stroke-width="0"/>
        <path d="M18.21,82.47v-13.97h1.44l.14,2.93h.03c.65-1.94,2-2.93,4.45-2.93h1.08v1.72h-1.1c-2.77,0-4.22,1.53-4.22,4.7v7.55h-1.82Z" fill="#231f20" stroke-width="0"/>
        <path d="M37.64,79.84c-.97,1.91-2.7,2.91-5.28,2.91-3.11,0-5.01-1.65-5.01-4.32s1.97-4.32,5.26-4.32h4.87v-.28c0-2.52-1.38-4.02-3.81-4.02-1.72,0-3,.72-3.98,2.08l-1.35-1c1.28-1.72,3.05-2.67,5.33-2.67,3.59,0,5.57,2.15,5.57,5.74v8.51h-1.45l-.1-2.63h-.06ZM37.49,76.65v-1.01h-4.83c-2.31,0-3.55,1.01-3.55,2.74s1.32,2.87,3.55,2.87c2.95,0,4.83-1.79,4.83-4.6Z" fill="#231f20" stroke-width="0"/>
        <path d="M48.28,79.91h.06l4.81-11.41h1.89l-6.02,13.97h-1.48l-6.04-13.97h2l4.78,11.41Z" fill="#231f20" stroke-width="0"/>
        <path d="M63.88,82.76c-4.4,0-7.13-2.8-7.13-7.17s2.77-7.36,7.01-7.36,6.94,3.1,6.67,7.92h-11.83c.13,3.18,2.11,5.08,5.32,5.08,2.03,0,3.49-.79,4.4-2.22l1.32.9c-1.18,1.86-3.18,2.86-5.75,2.86ZM58.62,74.6h10.03c-.14-3.01-1.97-4.81-4.87-4.81s-4.88,1.81-5.16,4.81Z" fill="#231f20" stroke-width="0"/>
        <path d="M74.21,82.47v-13.97h1.44l.14,2.93h.03c.65-1.94,2-2.93,4.45-2.93h1.08v1.72h-1.1c-2.77,0-4.22,1.53-4.22,4.7v7.55h-1.82Z" fill="#231f20" stroke-width="0"/>
        <path d="M86.96,87.48l2.19-5.52c.1-.28.11-.46,0-.72l-6.08-12.75h2l5.09,10.83h.04l4.28-10.83h1.86l-7.48,18.98h-1.9Z" fill="#231f20" stroke-width="0"/>
      </g>
    </g>
  </g>
</svg>